<?xml version="1.0" encoding="UTF-8" standalone="no"?><svg xmlns="http://www.w3.org/2000/svg" xmlns:xlink="http://www.w3.org/1999/xlink" clip-rule="evenodd" stroke-miterlimit="4.00" viewBox="0 0 1024 768"><desc>SVG generated by Keynote</desc><defs></defs><g transform="matrix(1.00, 0.00, -0.00, -1.00, 0.0, 768.0)"><g><clipPath id="clip-0"><path d="M 0.0 768.0 L 1024.0 768.0 L 1024.0 0.0 L 0.0 0.0 Z M 0.0 768.0 "></path></clipPath><g clip-path="url(#clip-0)"><image xlink:href="D3CB8578D364082F6943B53F933CCC32.jpeg" width="1024.00" height="768.00" transform="matrix(1.00, 0.00, -0.00, -1.00, 0.0, 768.0)"></image></g></g><text xml:space="preserve" font-family="PTSans-Narrow" font-size="72.0" fill="#EA3C43" transform="matrix(1.00, 0.00, -0.00, -1.00, 332.0, 456.0)">С</text><text xml:space="preserve" font-family="PTSans-Narrow" font-size="72.0" fill="#525252" transform="matrix(1.00, 0.00, -0.00, -1.00, 361.3, 456.0)">т</text><text xml:space="preserve" font-family="PTSans-Narrow" font-size="72.0" fill="#525252" transform="matrix(1.00, 0.00, -0.00, -1.00, 383.5, 456.0)">о</text><text xml:space="preserve" font-family="PTSans-Narrow" font-size="72.0" fill="#525252" transform="matrix(1.00, 0.00, -0.00, -1.00, 414.6, 456.0)">п</text><text xml:space="preserve" font-family="PTSans-Narrow" font-size="72.0" fill="#525252" transform="matrix(1.00, 0.00, -0.00, -1.00, 445.5, 456.0)">.</text><text xml:space="preserve" font-family="PTSans-Narrow" font-size="72.0" fill="#525252" transform="matrix(1.00, 0.00, -0.00, -1.00, 456.7, 456.0)">С</text><text xml:space="preserve" font-family="PTSans-Narrow" font-size="72.0" fill="#525252" transform="matrix(1.00, 0.00, -0.00, -1.00, 487.7, 456.0)">о</text><text xml:space="preserve" font-family="PTSans-Narrow" font-size="72.0" fill="#525252" transform="matrix(1.00, 0.00, -0.00, -1.00, 518.8, 456.0)">в</text><text xml:space="preserve" font-family="PTSans-Narrow" font-size="72.0" fill="#525252" transform="matrix(1.00, 0.00, -0.00, -1.00, 547.8, 456.0)">е</text><text xml:space="preserve" font-family="PTSans-Narrow" font-size="72.0" fill="#525252" transform="matrix(1.00, 0.00, -0.00, -1.00, 577.5, 456.0)">т</text><text xml:space="preserve" font-family="PTSans-Narrow" font-size="72.0" fill="#525252" transform="matrix(1.00, 0.00, -0.00, -1.00, 600.6, 456.0)">н</text><text xml:space="preserve" font-family="PTSans-Narrow" font-size="72.0" fill="#525252" transform="matrix(1.00, 0.00, -0.00, -1.00, 631.8, 456.0)">и</text><text xml:space="preserve" font-family="PTSans-Narrow" font-size="72.0" fill="#525252" transform="matrix(1.00, 0.00, -0.00, -1.00, 663.4, 456.0)">к</text><text xml:space="preserve" font-family="HelveticaNeue-Light" font-size="38.0" fill="#525252" transform="matrix(1.00, 0.00, -0.00, -1.00, 247.0, 312.0)">А</text><text xml:space="preserve" font-family="HelveticaNeue-Light" font-size="38.0" fill="#525252" transform="matrix(1.00, 0.00, -0.00, -1.00, 270.9, 312.0)"> </text><text xml:space="preserve" font-family="HelveticaNeue-Light" font-size="38.0" fill="#525252" transform="matrix(1.00, 0.00, -0.00, -1.00, 281.5, 312.0)">в</text><text xml:space="preserve" font-family="HelveticaNeue-Light" font-size="38.0" fill="#525252" transform="matrix(1.00, 0.00, -0.00, -1.00, 301.1, 312.0)">ы</text><text xml:space="preserve" font-family="HelveticaNeue-Light" font-size="38.0" fill="#525252" transform="matrix(1.00, 0.00, -0.00, -1.00, 326.6, 312.0)"> </text><text xml:space="preserve" font-family="HelveticaNeue-Light" font-size="38.0" fill="#525252" transform="matrix(1.00, 0.00, -0.00, -1.00, 337.2, 312.0)">з</text><text xml:space="preserve" font-family="HelveticaNeue-Light" font-size="38.0" fill="#525252" transform="matrix(1.00, 0.00, -0.00, -1.00, 355.6, 312.0)">н</text><text xml:space="preserve" font-family="HelveticaNeue-Light" font-size="38.0" fill="#525252" transform="matrix(1.00, 0.00, -0.00, -1.00, 376.0, 312.0)">а</text><text xml:space="preserve" font-family="HelveticaNeue-Light" font-size="38.0" fill="#525252" transform="matrix(1.00, 0.00, -0.00, -1.00, 395.8, 312.0)">е</text><text xml:space="preserve" font-family="HelveticaNeue-Light" font-size="38.0" fill="#525252" transform="matrix(1.00, 0.00, -0.00, -1.00, 415.5, 312.0)">т</text><text xml:space="preserve" font-family="HelveticaNeue-Light" font-size="38.0" fill="#525252" transform="matrix(1.00, 0.00, -0.00, -1.00, 432.3, 312.0)">е</text><text xml:space="preserve" font-family="HelveticaNeue-Light" font-size="38.0" fill="#525252" transform="matrix(1.00, 0.00, -0.00, -1.00, 452.0, 312.0)">,</text><text xml:space="preserve" font-family="HelveticaNeue-Light" font-size="38.0" fill="#525252" transform="matrix(1.00, 0.00, -0.00, -1.00, 462.6, 312.0)"> </text><text xml:space="preserve" font-family="HelveticaNeue-Light" font-size="38.0" fill="#525252" transform="matrix(1.00, 0.00, -0.00, -1.00, 473.2, 312.0)">ч</text><text xml:space="preserve" font-family="HelveticaNeue-Light" font-size="38.0" fill="#525252" transform="matrix(1.00, 0.00, -0.00, -1.00, 492.1, 312.0)">т</text><text xml:space="preserve" font-family="HelveticaNeue-Light" font-size="38.0" fill="#525252" transform="matrix(1.00, 0.00, -0.00, -1.00, 508.9, 312.0)">о</text><text xml:space="preserve" font-family="HelveticaNeue-Light" font-size="38.0" fill="#525252" transform="matrix(1.00, 0.00, -0.00, -1.00, 530.1, 312.0)"> </text><text xml:space="preserve" font-family="HelveticaNeue-Light" font-size="38.0" fill="#525252" transform="matrix(1.00, 0.00, -0.00, -1.00, 540.6, 312.0)">п</text><text xml:space="preserve" font-family="HelveticaNeue-Light" font-size="38.0" fill="#525252" transform="matrix(1.00, 0.00, -0.00, -1.00, 560.8, 312.0)">р</text><text xml:space="preserve" font-family="HelveticaNeue-Light" font-size="38.0" fill="#525252" transform="matrix(1.00, 0.00, -0.00, -1.00, 582.6, 312.0)">я</text><text xml:space="preserve" font-family="HelveticaNeue-Light" font-size="38.0" fill="#525252" transform="matrix(1.00, 0.00, -0.00, -1.00, 601.8, 312.0)">м</text><text xml:space="preserve" font-family="HelveticaNeue-Light" font-size="38.0" fill="#525252" transform="matrix(1.00, 0.00, -0.00, -1.00, 627.2, 312.0)">о</text><text xml:space="preserve" font-family="HelveticaNeue-Light" font-size="38.0" fill="#525252" transform="matrix(1.00, 0.00, -0.00, -1.00, 648.3, 312.0)"> </text><text xml:space="preserve" font-family="HelveticaNeue-Light" font-size="38.0" fill="#525252" transform="matrix(1.00, 0.00, -0.00, -1.00, 658.9, 312.0)">с</text><text xml:space="preserve" font-family="HelveticaNeue-Light" font-size="38.0" fill="#525252" transform="matrix(1.00, 0.00, -0.00, -1.00, 678.6, 312.0)">е</text><text xml:space="preserve" font-family="HelveticaNeue-Light" font-size="38.0" fill="#525252" transform="matrix(1.00, 0.00, -0.00, -1.00, 698.3, 312.0)">й</text><text xml:space="preserve" font-family="HelveticaNeue-Light" font-size="38.0" fill="#525252" transform="matrix(1.00, 0.00, -0.00, -1.00, 719.0, 312.0)">ч</text><text xml:space="preserve" font-family="HelveticaNeue-Light" font-size="38.0" fill="#525252" transform="matrix(1.00, 0.00, -0.00, -1.00, 737.9, 312.0)">а</text><text xml:space="preserve" font-family="HelveticaNeue-Light" font-size="38.0" fill="#525252" transform="matrix(1.00, 0.00, -0.00, -1.00, 757.6, 312.0)">с</text><text xml:space="preserve" font-family="HelveticaNeue-Light" font-size="38.0" fill="#525252" transform="matrix(1.00, 0.00, -0.00, -1.00, 777.4, 312.0)"> </text><text xml:space="preserve" font-family="LucidaGrande" font-size="38.0" fill="#525252" transform="matrix(1.00, 0.00, -0.00, -1.00, 787.9, 312.0)"> </text><text xml:space="preserve" font-family="HelveticaNeue-Medium" font-size="38.0" fill="#525252" transform="matrix(1.00, 0.00, -0.00, -1.00, 123.0, 266.0)">Я</text><text xml:space="preserve" font-family="HelveticaNeue-Medium" font-size="38.0" fill="#525252" transform="matrix(1.00, 0.00, -0.00, -1.00, 148.3, 266.0)">н</text><text xml:space="preserve" font-family="HelveticaNeue-Medium" font-size="38.0" fill="#525252" transform="matrix(1.00, 0.00, -0.00, -1.00, 171.6, 266.0)">д</text><text xml:space="preserve" font-family="HelveticaNeue-Medium" font-size="38.0" fill="#525252" transform="matrix(1.00, 0.00, -0.00, -1.00, 197.8, 266.0)">е</text><text xml:space="preserve" font-family="HelveticaNeue-Medium" font-size="38.0" fill="#525252" transform="matrix(1.00, 0.00, -0.00, -1.00, 218.9, 266.0)">к</text><text xml:space="preserve" font-family="HelveticaNeue-Medium" font-size="38.0" fill="#525252" transform="matrix(1.00, 0.00, -0.00, -1.00, 239.4, 266.0)">с</text><text xml:space="preserve" font-family="HelveticaNeue-Light" font-size="38.0" fill="#525252" transform="matrix(1.00, 0.00, -0.00, -1.00, 260.5, 266.0)"> </text><text xml:space="preserve" font-family="HelveticaNeue-Light" font-size="38.0" fill="#525252" transform="matrix(1.00, 0.00, -0.00, -1.00, 271.0, 266.0)">з</text><text xml:space="preserve" font-family="HelveticaNeue-Light" font-size="38.0" fill="#525252" transform="matrix(1.00, 0.00, -0.00, -1.00, 289.5, 266.0)">а</text><text xml:space="preserve" font-family="HelveticaNeue-Light" font-size="38.0" fill="#525252" transform="matrix(1.00, 0.00, -0.00, -1.00, 309.2, 266.0)">б</text><text xml:space="preserve" font-family="HelveticaNeue-Light" font-size="38.0" fill="#525252" transform="matrix(1.00, 0.00, -0.00, -1.00, 330.3, 266.0)">и</text><text xml:space="preserve" font-family="HelveticaNeue-Light" font-size="38.0" fill="#525252" transform="matrix(1.00, 0.00, -0.00, -1.00, 351.0, 266.0)">р</text><text xml:space="preserve" font-family="HelveticaNeue-Light" font-size="38.0" fill="#525252" transform="matrix(1.00, 0.00, -0.00, -1.00, 372.8, 266.0)">а</text><text xml:space="preserve" font-family="HelveticaNeue-Light" font-size="38.0" fill="#525252" transform="matrix(1.00, 0.00, -0.00, -1.00, 392.5, 266.0)">е</text><text xml:space="preserve" font-family="HelveticaNeue-Light" font-size="38.0" fill="#525252" transform="matrix(1.00, 0.00, -0.00, -1.00, 412.3, 266.0)">т</text><text xml:space="preserve" font-family="HelveticaNeue-Light" font-size="38.0" fill="#525252" transform="matrix(1.00, 0.00, -0.00, -1.00, 429.1, 266.0)"> </text><text xml:space="preserve" font-family="HelveticaNeue-Light" font-size="38.0" fill="#525252" transform="matrix(1.00, 0.00, -0.00, -1.00, 439.7, 266.0)">к</text><text xml:space="preserve" font-family="HelveticaNeue-Light" font-size="38.0" fill="#525252" transform="matrix(1.00, 0.00, -0.00, -1.00, 458.6, 266.0)">л</text><text xml:space="preserve" font-family="HelveticaNeue-Light" font-size="38.0" fill="#525252" transform="matrix(1.00, 0.00, -0.00, -1.00, 480.0, 266.0)">и</text><text xml:space="preserve" font-family="HelveticaNeue-Light" font-size="38.0" fill="#525252" transform="matrix(1.00, 0.00, -0.00, -1.00, 500.7, 266.0)">е</text><text xml:space="preserve" font-family="HelveticaNeue-Light" font-size="38.0" fill="#525252" transform="matrix(1.00, 0.00, -0.00, -1.00, 520.4, 266.0)">н</text><text xml:space="preserve" font-family="HelveticaNeue-Light" font-size="38.0" fill="#525252" transform="matrix(1.00, 0.00, -0.00, -1.00, 540.8, 266.0)">т</text><text xml:space="preserve" font-family="HelveticaNeue-Light" font-size="38.0" fill="#525252" transform="matrix(1.00, 0.00, -0.00, -1.00, 557.7, 266.0)">о</text><text xml:space="preserve" font-family="HelveticaNeue-Light" font-size="38.0" fill="#525252" transform="matrix(1.00, 0.00, -0.00, -1.00, 578.8, 266.0)">в</text><text xml:space="preserve" font-family="HelveticaNeue-Light" font-size="38.0" fill="#525252" transform="matrix(1.00, 0.00, -0.00, -1.00, 598.5, 266.0)"> </text><text xml:space="preserve" font-family="HelveticaNeue-Light" font-size="38.0" fill="#525252" transform="matrix(1.00, 0.00, -0.00, -1.00, 609.0, 266.0)">н</text><text xml:space="preserve" font-family="HelveticaNeue-Light" font-size="38.0" fill="#525252" transform="matrix(1.00, 0.00, -0.00, -1.00, 629.4, 266.0)">а</text><text xml:space="preserve" font-family="HelveticaNeue-Light" font-size="38.0" fill="#525252" transform="matrix(1.00, 0.00, -0.00, -1.00, 649.1, 266.0)"> </text><text xml:space="preserve" font-family="HelveticaNeue-Light" font-size="38.0" fill="#525252" transform="matrix(1.00, 0.00, -0.00, -1.00, 659.7, 266.0)">в</text><text xml:space="preserve" font-family="HelveticaNeue-Light" font-size="38.0" fill="#525252" transform="matrix(1.00, 0.00, -0.00, -1.00, 679.4, 266.0)">а</text><text xml:space="preserve" font-family="HelveticaNeue-Light" font-size="38.0" fill="#525252" transform="matrix(1.00, 0.00, -0.00, -1.00, 699.1, 266.0)">ш</text><text xml:space="preserve" font-family="HelveticaNeue-Light" font-size="38.0" fill="#525252" transform="matrix(1.00, 0.00, -0.00, -1.00, 728.8, 266.0)">е</text><text xml:space="preserve" font-family="HelveticaNeue-Light" font-size="38.0" fill="#525252" transform="matrix(1.00, 0.00, -0.00, -1.00, 748.6, 266.0)">м</text><text xml:space="preserve" font-family="HelveticaNeue-Light" font-size="38.0" fill="#525252" transform="matrix(1.00, 0.00, -0.00, -1.00, 773.9, 266.0)"> </text><text xml:space="preserve" font-family="HelveticaNeue-Light" font-size="38.0" fill="#525252" transform="matrix(1.00, 0.00, -0.00, -1.00, 784.5, 266.0)">с</text><text xml:space="preserve" font-family="HelveticaNeue-Light" font-size="38.0" fill="#525252" transform="matrix(1.00, 0.00, -0.00, -1.00, 804.2, 266.0)">а</text><text xml:space="preserve" font-family="HelveticaNeue-Light" font-size="38.0" fill="#525252" transform="matrix(1.00, 0.00, -0.00, -1.00, 823.9, 266.0)">й</text><text xml:space="preserve" font-family="HelveticaNeue-Light" font-size="38.0" fill="#525252" transform="matrix(1.00, 0.00, -0.00, -1.00, 844.6, 266.0)">т</text><text xml:space="preserve" font-family="HelveticaNeue-Light" font-size="38.0" fill="#525252" transform="matrix(1.00, 0.00, -0.00, -1.00, 861.5, 266.0)">е</text><text xml:space="preserve" font-family="HelveticaNeue-Light" font-size="38.0" fill="#525252" transform="matrix(1.00, 0.00, -0.00, -1.00, 881.2, 266.0)">?</text></g></svg>