<?xml version="1.0" encoding="UTF-8" standalone="no"?><svg xmlns="http://www.w3.org/2000/svg" xmlns:xlink="http://www.w3.org/1999/xlink" clip-rule="evenodd" stroke-miterlimit="4.00" viewBox="0 0 1024 768"><desc>SVG generated by Keynote</desc><defs></defs><g transform="matrix(1.00, 0.00, -0.00, -1.00, 0.0, 768.0)"><g><clipPath id="clip-19"><path d="M 0.0 768.0 L 1024.0 768.0 L 1024.0 0.0 L 0.0 0.0 Z M 0.0 768.0 "></path></clipPath><g clip-path="url(#clip-19)"><image xlink:href="../../293415CD-D1BA-41BB-8703-BAEDA9FFCE27/assets/D3CB8578D364082F6943B53F933CCC32.jpeg" width="1024.00" height="768.00" transform="matrix(1.00, 0.00, -0.00, -1.00, 0.0, 768.0)"></image></g></g><text xml:space="preserve" font-family="HelveticaNeue-Light" font-size="38.0" fill="#525252" transform="matrix(1.00, 0.00, -0.00, -1.00, 77.0, 691.0)">П</text><text xml:space="preserve" font-family="HelveticaNeue-Light" font-size="38.0" fill="#525252" transform="matrix(1.00, 0.00, -0.00, -1.00, 103.4, 691.0)">о</text><text xml:space="preserve" font-family="HelveticaNeue-Light" font-size="38.0" fill="#525252" transform="matrix(1.00, 0.00, -0.00, -1.00, 124.5, 691.0)"> </text><text xml:space="preserve" font-family="HelveticaNeue-Light" font-size="38.0" fill="#525252" transform="matrix(1.00, 0.00, -0.00, -1.00, 135.1, 691.0)">н</text><text xml:space="preserve" font-family="HelveticaNeue-Light" font-size="38.0" fill="#525252" transform="matrix(1.00, 0.00, -0.00, -1.00, 155.5, 691.0)">а</text><text xml:space="preserve" font-family="HelveticaNeue-Light" font-size="38.0" fill="#525252" transform="matrix(1.00, 0.00, -0.00, -1.00, 175.2, 691.0)">ш</text><text xml:space="preserve" font-family="HelveticaNeue-Light" font-size="38.0" fill="#525252" transform="matrix(1.00, 0.00, -0.00, -1.00, 204.9, 691.0)">и</text><text xml:space="preserve" font-family="HelveticaNeue-Light" font-size="38.0" fill="#525252" transform="matrix(1.00, 0.00, -0.00, -1.00, 225.6, 691.0)">м</text><text xml:space="preserve" font-family="HelveticaNeue-Light" font-size="38.0" fill="#525252" transform="matrix(1.00, 0.00, -0.00, -1.00, 251.0, 691.0)"> </text><text xml:space="preserve" font-family="HelveticaNeue-Light" font-size="38.0" fill="#525252" transform="matrix(1.00, 0.00, -0.00, -1.00, 261.6, 691.0)">з</text><text xml:space="preserve" font-family="HelveticaNeue-Light" font-size="38.0" fill="#525252" transform="matrix(1.00, 0.00, -0.00, -1.00, 280.0, 691.0)">а</text><text xml:space="preserve" font-family="HelveticaNeue-Light" font-size="38.0" fill="#525252" transform="matrix(1.00, 0.00, -0.00, -1.00, 299.7, 691.0)">м</text><text xml:space="preserve" font-family="HelveticaNeue-Light" font-size="38.0" fill="#525252" transform="matrix(1.00, 0.00, -0.00, -1.00, 325.1, 691.0)">е</text><text xml:space="preserve" font-family="HelveticaNeue-Light" font-size="38.0" fill="#525252" transform="matrix(1.00, 0.00, -0.00, -1.00, 344.8, 691.0)">р</text><text xml:space="preserve" font-family="HelveticaNeue-Light" font-size="38.0" fill="#525252" transform="matrix(1.00, 0.00, -0.00, -1.00, 366.6, 691.0)">а</text><text xml:space="preserve" font-family="HelveticaNeue-Light" font-size="38.0" fill="#525252" transform="matrix(1.00, 0.00, -0.00, -1.00, 386.4, 691.0)">м</text><text xml:space="preserve" font-family="HelveticaNeue-Light" font-size="38.0" fill="#525252" transform="matrix(1.00, 0.00, -0.00, -1.00, 411.7, 691.0)"> </text><text xml:space="preserve" font-family="HelveticaNeue-Light" font-size="38.0" fill="#525252" transform="matrix(1.00, 0.00, -0.00, -1.00, 422.3, 691.0)">д</text><text xml:space="preserve" font-family="HelveticaNeue-Light" font-size="38.0" fill="#525252" transform="matrix(1.00, 0.00, -0.00, -1.00, 444.0, 691.0)">о</text><text xml:space="preserve" font-family="HelveticaNeue-Light" font-size="38.0" fill="#525252" transform="matrix(1.00, 0.00, -0.00, -1.00, 465.1, 691.0)"> </text><text xml:space="preserve" font-family="HelveticaNeue-Light" font-size="38.0" fill="#525252" transform="matrix(1.00, 0.00, -0.00, -1.00, 475.7, 691.0)">1</text><text xml:space="preserve" font-family="HelveticaNeue-Light" font-size="38.0" fill="#525252" transform="matrix(1.00, 0.00, -0.00, -1.00, 496.8, 691.0)">5</text><text xml:space="preserve" font-family="HelveticaNeue-Light" font-size="38.0" fill="#525252" transform="matrix(1.00, 0.00, -0.00, -1.00, 517.9, 691.0)">%</text><text xml:space="preserve" font-family="HelveticaNeue-Light" font-size="38.0" fill="#525252" transform="matrix(1.00, 0.00, -0.00, -1.00, 551.7, 691.0)"> </text><text xml:space="preserve" font-family="HelveticaNeue-Light" font-size="38.0" fill="#525252" transform="matrix(1.00, 0.00, -0.00, -1.00, 562.3, 691.0)">п</text><text xml:space="preserve" font-family="HelveticaNeue-Light" font-size="38.0" fill="#525252" transform="matrix(1.00, 0.00, -0.00, -1.00, 582.4, 691.0)">о</text><text xml:space="preserve" font-family="HelveticaNeue-Light" font-size="38.0" fill="#525252" transform="matrix(1.00, 0.00, -0.00, -1.00, 603.5, 691.0)">л</text><text xml:space="preserve" font-family="HelveticaNeue-Light" font-size="38.0" fill="#525252" transform="matrix(1.00, 0.00, -0.00, -1.00, 625.0, 691.0)">ь</text><text xml:space="preserve" font-family="HelveticaNeue-Light" font-size="38.0" fill="#525252" transform="matrix(1.00, 0.00, -0.00, -1.00, 644.0, 691.0)">з</text><text xml:space="preserve" font-family="HelveticaNeue-Light" font-size="38.0" fill="#525252" transform="matrix(1.00, 0.00, -0.00, -1.00, 662.4, 691.0)">о</text><text xml:space="preserve" font-family="HelveticaNeue-Light" font-size="38.0" fill="#525252" transform="matrix(1.00, 0.00, -0.00, -1.00, 683.6, 691.0)">в</text><text xml:space="preserve" font-family="HelveticaNeue-Light" font-size="38.0" fill="#525252" transform="matrix(1.00, 0.00, -0.00, -1.00, 703.2, 691.0)">а</text><text xml:space="preserve" font-family="HelveticaNeue-Light" font-size="38.0" fill="#525252" transform="matrix(1.00, 0.00, -0.00, -1.00, 722.9, 691.0)">т</text><text xml:space="preserve" font-family="HelveticaNeue-Light" font-size="38.0" fill="#525252" transform="matrix(1.00, 0.00, -0.00, -1.00, 739.8, 691.0)">е</text><text xml:space="preserve" font-family="HelveticaNeue-Light" font-size="38.0" fill="#525252" transform="matrix(1.00, 0.00, -0.00, -1.00, 759.5, 691.0)">л</text><text xml:space="preserve" font-family="HelveticaNeue-Light" font-size="38.0" fill="#525252" transform="matrix(1.00, 0.00, -0.00, -1.00, 780.9, 691.0)">е</text><text xml:space="preserve" font-family="HelveticaNeue-Light" font-size="38.0" fill="#525252" transform="matrix(1.00, 0.00, -0.00, -1.00, 800.7, 691.0)">й</text><text xml:space="preserve" font-family="HelveticaNeue-Light" font-size="38.0" fill="#525252" transform="matrix(1.00, 0.00, -0.00, -1.00, 821.3, 691.0)"> </text><text xml:space="preserve" font-family="HelveticaNeue-Light" font-size="38.0" fill="#525252" transform="matrix(1.00, 0.00, -0.00, -1.00, 831.9, 691.0)">р</text><text xml:space="preserve" font-family="HelveticaNeue-Light" font-size="38.0" fill="#525252" transform="matrix(1.00, 0.00, -0.00, -1.00, 853.7, 691.0)">у</text><text xml:space="preserve" font-family="HelveticaNeue-Light" font-size="38.0" fill="#525252" transform="matrix(1.00, 0.00, -0.00, -1.00, 871.3, 691.0)">н</text><text xml:space="preserve" font-family="HelveticaNeue-Light" font-size="38.0" fill="#525252" transform="matrix(1.00, 0.00, -0.00, -1.00, 891.7, 691.0)">е</text><text xml:space="preserve" font-family="HelveticaNeue-Light" font-size="38.0" fill="#525252" transform="matrix(1.00, 0.00, -0.00, -1.00, 911.4, 691.0)">т</text><text xml:space="preserve" font-family="HelveticaNeue-Light" font-size="38.0" fill="#525252" transform="matrix(1.00, 0.00, -0.00, -1.00, 928.3, 691.0)">а</text><text xml:space="preserve" font-family="HelveticaNeue-Light" font-size="38.0" fill="#525252" transform="matrix(1.00, 0.00, -0.00, -1.00, 948.0, 691.0)"> </text><text xml:space="preserve" font-family="HelveticaNeue-Light" font-size="38.0" fill="#525252" transform="matrix(1.00, 0.00, -0.00, -1.00, 182.0, 645.0)">а</text><text xml:space="preserve" font-family="HelveticaNeue-Light" font-size="38.0" fill="#525252" transform="matrix(1.00, 0.00, -0.00, -1.00, 201.7, 645.0)">к</text><text xml:space="preserve" font-family="HelveticaNeue-Light" font-size="38.0" fill="#525252" transform="matrix(1.00, 0.00, -0.00, -1.00, 220.6, 645.0)">т</text><text xml:space="preserve" font-family="HelveticaNeue-Light" font-size="38.0" fill="#525252" transform="matrix(1.00, 0.00, -0.00, -1.00, 237.5, 645.0)">и</text><text xml:space="preserve" font-family="HelveticaNeue-Light" font-size="38.0" fill="#525252" transform="matrix(1.00, 0.00, -0.00, -1.00, 258.2, 645.0)">в</text><text xml:space="preserve" font-family="HelveticaNeue-Light" font-size="38.0" fill="#525252" transform="matrix(1.00, 0.00, -0.00, -1.00, 277.8, 645.0)">н</text><text xml:space="preserve" font-family="HelveticaNeue-Light" font-size="38.0" fill="#525252" transform="matrix(1.00, 0.00, -0.00, -1.00, 298.2, 645.0)">о</text><text xml:space="preserve" font-family="HelveticaNeue-Light" font-size="38.0" fill="#525252" transform="matrix(1.00, 0.00, -0.00, -1.00, 319.3, 645.0)"> </text><text xml:space="preserve" font-family="HelveticaNeue-Light" font-size="38.0" fill="#525252" transform="matrix(1.00, 0.00, -0.00, -1.00, 329.9, 645.0)">и</text><text xml:space="preserve" font-family="HelveticaNeue-Light" font-size="38.0" fill="#525252" transform="matrix(1.00, 0.00, -0.00, -1.00, 350.6, 645.0)">с</text><text xml:space="preserve" font-family="HelveticaNeue-Light" font-size="38.0" fill="#525252" transform="matrix(1.00, 0.00, -0.00, -1.00, 370.3, 645.0)">п</text><text xml:space="preserve" font-family="HelveticaNeue-Light" font-size="38.0" fill="#525252" transform="matrix(1.00, 0.00, -0.00, -1.00, 390.4, 645.0)">о</text><text xml:space="preserve" font-family="HelveticaNeue-Light" font-size="38.0" fill="#525252" transform="matrix(1.00, 0.00, -0.00, -1.00, 411.6, 645.0)">л</text><text xml:space="preserve" font-family="HelveticaNeue-Light" font-size="38.0" fill="#525252" transform="matrix(1.00, 0.00, -0.00, -1.00, 433.0, 645.0)">ь</text><text xml:space="preserve" font-family="HelveticaNeue-Light" font-size="38.0" fill="#525252" transform="matrix(1.00, 0.00, -0.00, -1.00, 452.0, 645.0)">з</text><text xml:space="preserve" font-family="HelveticaNeue-Light" font-size="38.0" fill="#525252" transform="matrix(1.00, 0.00, -0.00, -1.00, 470.5, 645.0)">у</text><text xml:space="preserve" font-family="HelveticaNeue-Light" font-size="38.0" fill="#525252" transform="matrix(1.00, 0.00, -0.00, -1.00, 488.1, 645.0)">ю</text><text xml:space="preserve" font-family="HelveticaNeue-Light" font-size="38.0" fill="#525252" transform="matrix(1.00, 0.00, -0.00, -1.00, 516.4, 645.0)">т</text><text xml:space="preserve" font-family="HelveticaNeue-Light" font-size="38.0" fill="#525252" transform="matrix(1.00, 0.00, -0.00, -1.00, 533.2, 645.0)"> </text><text xml:space="preserve" font-family="HelveticaNeue-Light" font-size="38.0" fill="#525252" transform="matrix(1.00, 0.00, -0.00, -1.00, 543.8, 645.0)">Я</text><text xml:space="preserve" font-family="HelveticaNeue-Light" font-size="38.0" fill="#525252" transform="matrix(1.00, 0.00, -0.00, -1.00, 567.7, 645.0)">н</text><text xml:space="preserve" font-family="HelveticaNeue-Light" font-size="38.0" fill="#525252" transform="matrix(1.00, 0.00, -0.00, -1.00, 588.1, 645.0)">д</text><text xml:space="preserve" font-family="HelveticaNeue-Light" font-size="38.0" fill="#525252" transform="matrix(1.00, 0.00, -0.00, -1.00, 609.8, 645.0)">е</text><text xml:space="preserve" font-family="HelveticaNeue-Light" font-size="38.0" fill="#525252" transform="matrix(1.00, 0.00, -0.00, -1.00, 629.5, 645.0)">к</text><text xml:space="preserve" font-family="HelveticaNeue-Light" font-size="38.0" fill="#525252" transform="matrix(1.00, 0.00, -0.00, -1.00, 648.4, 645.0)">с</text><text xml:space="preserve" font-family="HelveticaNeue-Light" font-size="38.0" fill="#525252" transform="matrix(1.00, 0.00, -0.00, -1.00, 668.1, 645.0)">.</text><text xml:space="preserve" font-family="HelveticaNeue-Light" font-size="38.0" fill="#525252" transform="matrix(1.00, 0.00, -0.00, -1.00, 678.7, 645.0)">С</text><text xml:space="preserve" font-family="HelveticaNeue-Light" font-size="38.0" fill="#525252" transform="matrix(1.00, 0.00, -0.00, -1.00, 705.5, 645.0)">о</text><text xml:space="preserve" font-family="HelveticaNeue-Light" font-size="38.0" fill="#525252" transform="matrix(1.00, 0.00, -0.00, -1.00, 726.6, 645.0)">в</text><text xml:space="preserve" font-family="HelveticaNeue-Light" font-size="38.0" fill="#525252" transform="matrix(1.00, 0.00, -0.00, -1.00, 746.2, 645.0)">е</text><text xml:space="preserve" font-family="HelveticaNeue-Light" font-size="38.0" fill="#525252" transform="matrix(1.00, 0.00, -0.00, -1.00, 765.9, 645.0)">т</text><text xml:space="preserve" font-family="HelveticaNeue-Light" font-size="38.0" fill="#525252" transform="matrix(1.00, 0.00, -0.00, -1.00, 782.8, 645.0)">н</text><text xml:space="preserve" font-family="HelveticaNeue-Light" font-size="38.0" fill="#525252" transform="matrix(1.00, 0.00, -0.00, -1.00, 803.2, 645.0)">и</text><text xml:space="preserve" font-family="HelveticaNeue-Light" font-size="38.0" fill="#525252" transform="matrix(1.00, 0.00, -0.00, -1.00, 823.9, 645.0)">к</text><path d="M 85.6 297.7 L 813.6 297.7 " fill="none" stroke="#CBCCCB" stroke-width="1.00" transform="matrix(1.00, 0.00, 0.00, -1.00, 90.4, 591.2)"></path><path d="M 85.6 207.7 L 813.6 207.7 " fill="none" stroke="#CBCCCB" stroke-width="1.00" transform="matrix(1.00, 0.00, 0.00, -1.00, 90.4, 591.2)"></path><path d="M 85.6 117.7 L 813.6 117.7 " fill="none" stroke="#CBCCCB" stroke-width="1.00" transform="matrix(1.00, 0.00, 0.00, -1.00, 90.4, 591.2)"></path><path d="M 85.6 27.7 L 813.6 27.7 " fill="none" stroke="#CBCCCB" stroke-width="1.00" transform="matrix(1.00, 0.00, 0.00, -1.00, 90.4, 591.2)"></path><g><clipPath id="clip-20"><path d="M 90.4 203.6 L 90.4 563.2 L 132.4 563.2 L 132.4 203.6 Z M 90.4 203.6 "></path></clipPath><g clip-path="url(#clip-20)"><text xml:space="preserve" font-family="GillSans-Light" font-size="24.0" fill="#525252" transform="matrix(0.00, 1.00, 1.00, -0.00, 112.7, 319.6)">%</text><text xml:space="preserve" font-family="GillSans-Light" font-size="24.0" fill="#525252" transform="matrix(0.00, 1.00, 1.00, -0.00, 112.7, 336.4)"> </text><text xml:space="preserve" font-family="GillSans-Light" font-size="24.0" fill="#525252" transform="matrix(0.00, 1.00, 1.00, -0.00, 112.7, 343.1)">а</text><text xml:space="preserve" font-family="GillSans-Light" font-size="24.0" fill="#525252" transform="matrix(0.00, 1.00, 1.00, -0.00, 112.7, 353.3)">у</text><text xml:space="preserve" font-family="GillSans-Light" font-size="24.0" fill="#525252" transform="matrix(0.00, 1.00, 1.00, -0.00, 112.7, 363.3)">д</text><text xml:space="preserve" font-family="GillSans-Light" font-size="24.0" fill="#525252" transform="matrix(0.00, 1.00, 1.00, -0.00, 112.7, 374.9)">и</text><text xml:space="preserve" font-family="GillSans-Light" font-size="24.0" fill="#525252" transform="matrix(0.00, 1.00, 1.00, -0.00, 112.7, 386.9)">т</text><text xml:space="preserve" font-family="GillSans-Light" font-size="24.0" fill="#525252" transform="matrix(0.00, 1.00, 1.00, -0.00, 112.7, 398.0)">о</text><text xml:space="preserve" font-family="GillSans-Light" font-size="24.0" fill="#525252" transform="matrix(0.00, 1.00, 1.00, -0.00, 112.7, 411.0)">р</text><text xml:space="preserve" font-family="GillSans-Light" font-size="24.0" fill="#525252" transform="matrix(0.00, 1.00, 1.00, -0.00, 112.7, 423.3)">и</text><text xml:space="preserve" font-family="GillSans-Light" font-size="24.0" fill="#525252" transform="matrix(0.00, 1.00, 1.00, -0.00, 112.7, 435.2)">и</text></g></g><g><clipPath id="clip-21"><path d="M 143.4 188.6 L 158.4 188.6 L 158.4 218.6 L 143.4 218.6 Z M 143.4 188.6 "></path></clipPath><g clip-path="url(#clip-21)"><text xml:space="preserve" font-family="GillSans-Light" font-size="24.0" fill="#525252" transform="matrix(1.00, 0.00, -0.00, -1.00, 145.0, 195.0)">0</text></g></g><g><clipPath id="clip-22"><path d="M 143.4 278.5 L 158.4 278.5 L 158.4 308.5 L 143.4 308.5 Z M 143.4 278.5 "></path></clipPath><g clip-path="url(#clip-22)"><text xml:space="preserve" font-family="GillSans-Light" font-size="24.0" fill="#525252" transform="matrix(1.00, 0.00, -0.00, -1.00, 145.0, 285.0)">5</text></g></g><g><clipPath id="clip-23"><path d="M 131.4 368.4 L 158.4 368.4 L 158.4 398.4 L 131.4 398.4 Z M 131.4 368.4 "></path></clipPath><g clip-path="url(#clip-23)"><text xml:space="preserve" font-family="GillSans-Light" font-size="24.0" fill="#525252" transform="matrix(1.00, 0.00, -0.00, -1.00, 133.0, 375.0)">1</text><text xml:space="preserve" font-family="GillSans-Light" font-size="24.0" fill="#525252" transform="matrix(1.00, 0.00, -0.00, -1.00, 145.0, 375.0)">0</text></g></g><g><clipPath id="clip-24"><path d="M 131.4 458.3 L 158.4 458.3 L 158.4 488.3 L 131.4 488.3 Z M 131.4 458.3 "></path></clipPath><g clip-path="url(#clip-24)"><text xml:space="preserve" font-family="GillSans-Light" font-size="24.0" fill="#525252" transform="matrix(1.00, 0.00, -0.00, -1.00, 133.0, 465.0)">1</text><text xml:space="preserve" font-family="GillSans-Light" font-size="24.0" fill="#525252" transform="matrix(1.00, 0.00, -0.00, -1.00, 145.0, 465.0)">5</text></g></g><g><clipPath id="clip-25"><path d="M 131.4 548.2 L 158.4 548.2 L 158.4 578.2 L 131.4 578.2 Z M 131.4 548.2 "></path></clipPath><g clip-path="url(#clip-25)"><text xml:space="preserve" font-family="GillSans-Light" font-size="24.0" fill="#525252" transform="matrix(1.00, 0.00, -0.00, -1.00, 133.0, 555.0)">2</text><text xml:space="preserve" font-family="GillSans-Light" font-size="24.0" fill="#525252" transform="matrix(1.00, 0.00, -0.00, -1.00, 145.0, 555.0)">0</text></g></g><path d="M 86.1 387.7 L 813.1 387.7 " fill="none" stroke="#898A89" stroke-width="1.00" stroke-linecap="square" transform="matrix(1.00, 0.00, 0.00, -1.00, 90.4, 591.2)"></path><g><clipPath id="clip-26"><path d="M 205.0 162.5 L 329.0 162.5 L 329.0 192.5 L 205.0 192.5 Z M 205.0 162.5 "></path></clipPath><g clip-path="url(#clip-26)"><text xml:space="preserve" font-family="GillSans-Light" font-size="24.0" fill="#525252" transform="matrix(1.00, 0.00, -0.00, -1.00, 206.0, 169.0)">н</text><text xml:space="preserve" font-family="GillSans-Light" font-size="24.0" fill="#525252" transform="matrix(1.00, 0.00, -0.00, -1.00, 218.0, 169.0)">а</text><text xml:space="preserve" font-family="GillSans-Light" font-size="24.0" fill="#525252" transform="matrix(1.00, 0.00, -0.00, -1.00, 228.2, 169.0)">ч</text><text xml:space="preserve" font-family="GillSans-Light" font-size="24.0" fill="#525252" transform="matrix(1.00, 0.00, -0.00, -1.00, 238.9, 169.0)">а</text><text xml:space="preserve" font-family="GillSans-Light" font-size="24.0" fill="#525252" transform="matrix(1.00, 0.00, -0.00, -1.00, 249.1, 169.0)">л</text><text xml:space="preserve" font-family="GillSans-Light" font-size="24.0" fill="#525252" transform="matrix(1.00, 0.00, -0.00, -1.00, 259.3, 169.0)">о</text><text xml:space="preserve" font-family="GillSans-Light" font-size="24.0" fill="#525252" transform="matrix(1.00, 0.00, -0.00, -1.00, 272.3, 169.0)"> </text><text xml:space="preserve" font-family="GillSans-Light" font-size="24.0" fill="#525252" transform="matrix(1.00, 0.00, -0.00, -1.00, 279.0, 169.0)">2</text><text xml:space="preserve" font-family="GillSans-Light" font-size="24.0" fill="#525252" transform="matrix(1.00, 0.00, -0.00, -1.00, 291.0, 169.0)">0</text><text xml:space="preserve" font-family="GillSans-Light" font-size="24.0" fill="#525252" transform="matrix(1.00, 0.00, -0.00, -1.00, 303.0, 169.0)">1</text><text xml:space="preserve" font-family="GillSans-Light" font-size="24.0" fill="#525252" transform="matrix(1.00, 0.00, -0.00, -1.00, 315.0, 169.0)">5</text></g></g><g><clipPath id="clip-27"><path d="M 391.0 162.5 L 506.7 162.5 L 506.7 192.5 L 391.0 192.5 Z M 391.0 162.5 "></path></clipPath><g clip-path="url(#clip-27)"><text xml:space="preserve" font-family="GillSans-Light" font-size="24.0" fill="#525252" transform="matrix(1.00, 0.00, -0.00, -1.00, 393.0, 169.0)">к</text><text xml:space="preserve" font-family="GillSans-Light" font-size="24.0" fill="#525252" transform="matrix(1.00, 0.00, -0.00, -1.00, 402.6, 169.0)">о</text><text xml:space="preserve" font-family="GillSans-Light" font-size="24.0" fill="#525252" transform="matrix(1.00, 0.00, -0.00, -1.00, 415.6, 169.0)">н</text><text xml:space="preserve" font-family="GillSans-Light" font-size="24.0" fill="#525252" transform="matrix(1.00, 0.00, -0.00, -1.00, 427.6, 169.0)">е</text><text xml:space="preserve" font-family="GillSans-Light" font-size="24.0" fill="#525252" transform="matrix(1.00, 0.00, -0.00, -1.00, 439.1, 169.0)">ц</text><text xml:space="preserve" font-family="GillSans-Light" font-size="24.0" fill="#525252" transform="matrix(1.00, 0.00, -0.00, -1.00, 451.0, 169.0)"> </text><text xml:space="preserve" font-family="GillSans-Light" font-size="24.0" fill="#525252" transform="matrix(1.00, 0.00, -0.00, -1.00, 457.7, 169.0)">2</text><text xml:space="preserve" font-family="GillSans-Light" font-size="24.0" fill="#525252" transform="matrix(1.00, 0.00, -0.00, -1.00, 469.7, 169.0)">0</text><text xml:space="preserve" font-family="GillSans-Light" font-size="24.0" fill="#525252" transform="matrix(1.00, 0.00, -0.00, -1.00, 481.7, 169.0)">1</text><text xml:space="preserve" font-family="GillSans-Light" font-size="24.0" fill="#525252" transform="matrix(1.00, 0.00, -0.00, -1.00, 493.7, 169.0)">5</text></g></g><g><clipPath id="clip-28"><path d="M 568.7 162.5 L 692.8 162.5 L 692.8 192.5 L 568.7 192.5 Z M 568.7 162.5 "></path></clipPath><g clip-path="url(#clip-28)"><text xml:space="preserve" font-family="GillSans-Light" font-size="24.0" fill="#525252" transform="matrix(1.00, 0.00, -0.00, -1.00, 570.0, 169.0)">н</text><text xml:space="preserve" font-family="GillSans-Light" font-size="24.0" fill="#525252" transform="matrix(1.00, 0.00, -0.00, -1.00, 582.0, 169.0)">а</text><text xml:space="preserve" font-family="GillSans-Light" font-size="24.0" fill="#525252" transform="matrix(1.00, 0.00, -0.00, -1.00, 592.2, 169.0)">ч</text><text xml:space="preserve" font-family="GillSans-Light" font-size="24.0" fill="#525252" transform="matrix(1.00, 0.00, -0.00, -1.00, 602.9, 169.0)">а</text><text xml:space="preserve" font-family="GillSans-Light" font-size="24.0" fill="#525252" transform="matrix(1.00, 0.00, -0.00, -1.00, 613.1, 169.0)">л</text><text xml:space="preserve" font-family="GillSans-Light" font-size="24.0" fill="#525252" transform="matrix(1.00, 0.00, -0.00, -1.00, 623.3, 169.0)">о</text><text xml:space="preserve" font-family="GillSans-Light" font-size="24.0" fill="#525252" transform="matrix(1.00, 0.00, -0.00, -1.00, 636.3, 169.0)"> </text><text xml:space="preserve" font-family="GillSans-Light" font-size="24.0" fill="#525252" transform="matrix(1.00, 0.00, -0.00, -1.00, 643.0, 169.0)">2</text><text xml:space="preserve" font-family="GillSans-Light" font-size="24.0" fill="#525252" transform="matrix(1.00, 0.00, -0.00, -1.00, 655.0, 169.0)">0</text><text xml:space="preserve" font-family="GillSans-Light" font-size="24.0" fill="#525252" transform="matrix(1.00, 0.00, -0.00, -1.00, 667.0, 169.0)">1</text><text xml:space="preserve" font-family="GillSans-Light" font-size="24.0" fill="#525252" transform="matrix(1.00, 0.00, -0.00, -1.00, 679.0, 169.0)">6</text></g></g><g><clipPath id="clip-29"><path d="M 753.3 134.5 L 872.0 134.5 L 872.0 192.5 L 753.3 192.5 Z M 753.3 134.5 "></path></clipPath><g clip-path="url(#clip-29)"><text xml:space="preserve" font-family="GillSans-Light" font-size="24.0" fill="#525252" transform="matrix(1.00, 0.00, -0.00, -1.00, 758.0, 169.0)">п</text><text xml:space="preserve" font-family="GillSans-Light" font-size="24.0" fill="#525252" transform="matrix(1.00, 0.00, -0.00, -1.00, 770.0, 169.0)">р</text><text xml:space="preserve" font-family="GillSans-Light" font-size="24.0" fill="#525252" transform="matrix(1.00, 0.00, -0.00, -1.00, 782.2, 169.0)">о</text><text xml:space="preserve" font-family="GillSans-Light" font-size="24.0" fill="#525252" transform="matrix(1.00, 0.00, -0.00, -1.00, 795.2, 169.0)">г</text><text xml:space="preserve" font-family="GillSans-Light" font-size="24.0" fill="#525252" transform="matrix(1.00, 0.00, -0.00, -1.00, 803.8, 169.0)">н</text><text xml:space="preserve" font-family="GillSans-Light" font-size="24.0" fill="#525252" transform="matrix(1.00, 0.00, -0.00, -1.00, 815.7, 169.0)">о</text><text xml:space="preserve" font-family="GillSans-Light" font-size="24.0" fill="#525252" transform="matrix(1.00, 0.00, -0.00, -1.00, 828.7, 169.0)">з</text><text xml:space="preserve" font-family="GillSans-Light" font-size="24.0" fill="#525252" transform="matrix(1.00, 0.00, -0.00, -1.00, 838.2, 169.0)"> </text><text xml:space="preserve" font-family="GillSans-Light" font-size="24.0" fill="#525252" transform="matrix(1.00, 0.00, -0.00, -1.00, 844.9, 169.0)">н</text><text xml:space="preserve" font-family="GillSans-Light" font-size="24.0" fill="#525252" transform="matrix(1.00, 0.00, -0.00, -1.00, 856.8, 169.0)">а</text><text xml:space="preserve" font-family="GillSans-Light" font-size="24.0" fill="#525252" transform="matrix(1.00, 0.00, -0.00, -1.00, 867.1, 169.0)"> </text><text xml:space="preserve" font-family="LucidaGrande" font-size="24.0" fill="#525252" transform="matrix(1.00, 0.00, -0.00, -1.00, 873.8, 169.0)"> </text><text xml:space="preserve" font-family="GillSans-Light" font-size="24.0" fill="#525252" transform="matrix(1.00, 0.00, -0.00, -1.00, 756.0, 141.0)">к</text><text xml:space="preserve" font-family="GillSans-Light" font-size="24.0" fill="#525252" transform="matrix(1.00, 0.00, -0.00, -1.00, 765.6, 141.0)">о</text><text xml:space="preserve" font-family="GillSans-Light" font-size="24.0" fill="#525252" transform="matrix(1.00, 0.00, -0.00, -1.00, 778.6, 141.0)">н</text><text xml:space="preserve" font-family="GillSans-Light" font-size="24.0" fill="#525252" transform="matrix(1.00, 0.00, -0.00, -1.00, 790.6, 141.0)">е</text><text xml:space="preserve" font-family="GillSans-Light" font-size="24.0" fill="#525252" transform="matrix(1.00, 0.00, -0.00, -1.00, 802.1, 141.0)">ц</text><text xml:space="preserve" font-family="GillSans-Light" font-size="24.0" fill="#525252" transform="matrix(1.00, 0.00, -0.00, -1.00, 814.0, 141.0)"> </text><text xml:space="preserve" font-family="GillSans-Light" font-size="24.0" fill="#525252" transform="matrix(1.00, 0.00, -0.00, -1.00, 820.7, 141.0)">2</text><text xml:space="preserve" font-family="GillSans-Light" font-size="24.0" fill="#525252" transform="matrix(1.00, 0.00, -0.00, -1.00, 832.7, 141.0)">0</text><text xml:space="preserve" font-family="GillSans-Light" font-size="24.0" fill="#525252" transform="matrix(1.00, 0.00, -0.00, -1.00, 844.7, 141.0)">1</text><text xml:space="preserve" font-family="GillSans-Light" font-size="24.0" fill="#525252" transform="matrix(1.00, 0.00, -0.00, -1.00, 856.7, 141.0)">6</text></g></g><g><clipPath id="clip-30"><path d="M 176.1 203.6 L 903.6 203.6 L 903.6 563.2 L 176.1 563.2 Z M 176.1 203.6 "></path></clipPath><g clip-path="url(#clip-30)"><path d="M 202.0 294.0 L 332.0 294.0 L 332.0 204.0 L 202.0 204.0 Z M 202.0 294.0 " fill="#5A7CA2" fill-opacity="0.70"></path></g></g><g><clipPath id="clip-31"><path d="M 176.1 203.6 L 903.6 203.6 L 903.6 563.2 L 176.1 563.2 Z M 176.1 203.6 "></path></clipPath><g clip-path="url(#clip-31)"><path d="M 384.0 383.0 L 514.0 383.0 L 514.0 204.0 L 384.0 204.0 Z M 384.0 383.0 " fill="#5A7CA2" fill-opacity="0.70"></path></g></g><g><clipPath id="clip-32"><path d="M 176.1 203.6 L 903.6 203.6 L 903.6 563.2 L 176.1 563.2 Z M 176.1 203.6 "></path></clipPath><g clip-path="url(#clip-32)"><path d="M 566.0 473.0 L 696.0 473.0 L 696.0 204.0 L 566.0 204.0 Z M 566.0 473.0 " fill="#5A7CA2" fill-opacity="0.70"></path></g></g><g><clipPath id="clip-33"><path d="M 176.1 203.6 L 903.6 203.6 L 903.6 563.2 L 176.1 563.2 Z M 176.1 203.6 "></path></clipPath><g clip-path="url(#clip-33)"><path d="M 748.0 563.0 L 878.0 563.0 L 878.0 204.0 L 748.0 204.0 Z M 748.0 563.0 " fill="#5A7CA2" fill-opacity="0.70"></path></g></g><text xml:space="preserve" font-family="HelveticaNeue-Light" font-size="22.0" fill="#525252" transform="matrix(1.00, 0.00, -0.00, -1.00, 93.0, 79.0)">*</text><text xml:space="preserve" font-family="HelveticaNeue-Light" font-size="22.0" fill="#525252" transform="matrix(1.00, 0.00, -0.00, -1.00, 100.7, 79.0)"> </text><text xml:space="preserve" font-family="HelveticaNeue-Light" font-size="22.0" fill="#525252" transform="matrix(1.00, 0.00, -0.00, -1.00, 106.9, 79.0)">к</text><text xml:space="preserve" font-family="HelveticaNeue-Light" font-size="22.0" fill="#525252" transform="matrix(1.00, 0.00, -0.00, -1.00, 117.8, 79.0)"> </text><text xml:space="preserve" font-family="HelveticaNeue-Light" font-size="22.0" fill="#525252" transform="matrix(1.00, 0.00, -0.00, -1.00, 123.9, 79.0)">к</text><text xml:space="preserve" font-family="HelveticaNeue-Light" font-size="22.0" fill="#525252" transform="matrix(1.00, 0.00, -0.00, -1.00, 134.9, 79.0)">о</text><text xml:space="preserve" font-family="HelveticaNeue-Light" font-size="22.0" fill="#525252" transform="matrix(1.00, 0.00, -0.00, -1.00, 147.1, 79.0)">н</text><text xml:space="preserve" font-family="HelveticaNeue-Light" font-size="22.0" fill="#525252" transform="matrix(1.00, 0.00, -0.00, -1.00, 158.9, 79.0)">ц</text><text xml:space="preserve" font-family="HelveticaNeue-Light" font-size="22.0" fill="#525252" transform="matrix(1.00, 0.00, -0.00, -1.00, 171.1, 79.0)">у</text><text xml:space="preserve" font-family="HelveticaNeue-Light" font-size="22.0" fill="#525252" transform="matrix(1.00, 0.00, -0.00, -1.00, 181.3, 79.0)"> </text><text xml:space="preserve" font-family="HelveticaNeue-Light" font-size="22.0" fill="#525252" transform="matrix(1.00, 0.00, -0.00, -1.00, 187.4, 79.0)">2</text><text xml:space="preserve" font-family="HelveticaNeue-Light" font-size="22.0" fill="#525252" transform="matrix(1.00, 0.00, -0.00, -1.00, 199.6, 79.0)">0</text><text xml:space="preserve" font-family="HelveticaNeue-Light" font-size="22.0" fill="#525252" transform="matrix(1.00, 0.00, -0.00, -1.00, 211.8, 79.0)">1</text><text xml:space="preserve" font-family="HelveticaNeue-Light" font-size="22.0" fill="#525252" transform="matrix(1.00, 0.00, -0.00, -1.00, 224.1, 79.0)">6</text><text xml:space="preserve" font-family="HelveticaNeue-Light" font-size="22.0" fill="#525252" transform="matrix(1.00, 0.00, -0.00, -1.00, 236.3, 79.0)"> </text><text xml:space="preserve" font-family="HelveticaNeue-Light" font-size="22.0" fill="#525252" transform="matrix(1.00, 0.00, -0.00, -1.00, 242.4, 79.0)">г</text><text xml:space="preserve" font-family="HelveticaNeue-Light" font-size="22.0" fill="#525252" transform="matrix(1.00, 0.00, -0.00, -1.00, 251.2, 79.0)">о</text><text xml:space="preserve" font-family="HelveticaNeue-Light" font-size="22.0" fill="#525252" transform="matrix(1.00, 0.00, -0.00, -1.00, 263.5, 79.0)">д</text><text xml:space="preserve" font-family="HelveticaNeue-Light" font-size="22.0" fill="#525252" transform="matrix(1.00, 0.00, -0.00, -1.00, 276.0, 79.0)">а</text><text xml:space="preserve" font-family="HelveticaNeue-Light" font-size="22.0" fill="#525252" transform="matrix(1.00, 0.00, -0.00, -1.00, 287.4, 79.0)"> </text><text xml:space="preserve" font-family="HelveticaNeue-Light" font-size="22.0" fill="#525252" transform="matrix(1.00, 0.00, -0.00, -1.00, 293.5, 79.0)">к</text><text xml:space="preserve" font-family="HelveticaNeue-Light" font-size="22.0" fill="#525252" transform="matrix(1.00, 0.00, -0.00, -1.00, 304.5, 79.0)">а</text><text xml:space="preserve" font-family="HelveticaNeue-Light" font-size="22.0" fill="#525252" transform="matrix(1.00, 0.00, -0.00, -1.00, 315.9, 79.0)">ж</text><text xml:space="preserve" font-family="HelveticaNeue-Light" font-size="22.0" fill="#525252" transform="matrix(1.00, 0.00, -0.00, -1.00, 332.1, 79.0)">д</text><text xml:space="preserve" font-family="HelveticaNeue-Light" font-size="22.0" fill="#525252" transform="matrix(1.00, 0.00, -0.00, -1.00, 344.7, 79.0)">ы</text><text xml:space="preserve" font-family="HelveticaNeue-Light" font-size="22.0" fill="#525252" transform="matrix(1.00, 0.00, -0.00, -1.00, 359.4, 79.0)">й</text><text xml:space="preserve" font-family="HelveticaNeue-Light" font-size="22.0" fill="#525252" transform="matrix(1.00, 0.00, -0.00, -1.00, 371.4, 79.0)"> </text><text xml:space="preserve" font-family="HelveticaNeue-Light" font-size="22.0" fill="#525252" transform="matrix(1.00, 0.00, -0.00, -1.00, 377.5, 79.0)">п</text><text xml:space="preserve" font-family="HelveticaNeue-Light" font-size="22.0" fill="#525252" transform="matrix(1.00, 0.00, -0.00, -1.00, 389.2, 79.0)">я</text><text xml:space="preserve" font-family="HelveticaNeue-Light" font-size="22.0" fill="#525252" transform="matrix(1.00, 0.00, -0.00, -1.00, 400.3, 79.0)">т</text><text xml:space="preserve" font-family="HelveticaNeue-Light" font-size="22.0" fill="#525252" transform="matrix(1.00, 0.00, -0.00, -1.00, 410.0, 79.0)">ы</text><text xml:space="preserve" font-family="HelveticaNeue-Light" font-size="22.0" fill="#525252" transform="matrix(1.00, 0.00, -0.00, -1.00, 424.8, 79.0)">й</text><text xml:space="preserve" font-family="HelveticaNeue-Light" font-size="22.0" fill="#525252" transform="matrix(1.00, 0.00, -0.00, -1.00, 436.8, 79.0)"> </text><text xml:space="preserve" font-family="HelveticaNeue-Light" font-size="22.0" fill="#525252" transform="matrix(1.00, 0.00, -0.00, -1.00, 442.9, 79.0)">п</text><text xml:space="preserve" font-family="HelveticaNeue-Light" font-size="22.0" fill="#525252" transform="matrix(1.00, 0.00, -0.00, -1.00, 454.5, 79.0)">о</text><text xml:space="preserve" font-family="HelveticaNeue-Light" font-size="22.0" fill="#525252" transform="matrix(1.00, 0.00, -0.00, -1.00, 466.8, 79.0)">л</text><text xml:space="preserve" font-family="HelveticaNeue-Light" font-size="22.0" fill="#525252" transform="matrix(1.00, 0.00, -0.00, -1.00, 479.2, 79.0)">ь</text><text xml:space="preserve" font-family="HelveticaNeue-Light" font-size="22.0" fill="#525252" transform="matrix(1.00, 0.00, -0.00, -1.00, 490.2, 79.0)">з</text><text xml:space="preserve" font-family="HelveticaNeue-Light" font-size="22.0" fill="#525252" transform="matrix(1.00, 0.00, -0.00, -1.00, 500.9, 79.0)">о</text><text xml:space="preserve" font-family="HelveticaNeue-Light" font-size="22.0" fill="#525252" transform="matrix(1.00, 0.00, -0.00, -1.00, 513.1, 79.0)">в</text><text xml:space="preserve" font-family="HelveticaNeue-Light" font-size="22.0" fill="#525252" transform="matrix(1.00, 0.00, -0.00, -1.00, 524.5, 79.0)">а</text><text xml:space="preserve" font-family="HelveticaNeue-Light" font-size="22.0" fill="#525252" transform="matrix(1.00, 0.00, -0.00, -1.00, 535.9, 79.0)">т</text><text xml:space="preserve" font-family="HelveticaNeue-Light" font-size="22.0" fill="#525252" transform="matrix(1.00, 0.00, -0.00, -1.00, 545.7, 79.0)">е</text><text xml:space="preserve" font-family="HelveticaNeue-Light" font-size="22.0" fill="#525252" transform="matrix(1.00, 0.00, -0.00, -1.00, 557.1, 79.0)">л</text><text xml:space="preserve" font-family="HelveticaNeue-Light" font-size="22.0" fill="#525252" transform="matrix(1.00, 0.00, -0.00, -1.00, 569.5, 79.0)">ь</text><text xml:space="preserve" font-family="HelveticaNeue-Light" font-size="22.0" fill="#525252" transform="matrix(1.00, 0.00, -0.00, -1.00, 580.5, 79.0)"> </text><text xml:space="preserve" font-family="HelveticaNeue-Light" font-size="22.0" fill="#525252" transform="matrix(1.00, 0.00, -0.00, -1.00, 586.6, 79.0)">р</text><text xml:space="preserve" font-family="HelveticaNeue-Light" font-size="22.0" fill="#525252" transform="matrix(1.00, 0.00, -0.00, -1.00, 599.2, 79.0)">у</text><text xml:space="preserve" font-family="HelveticaNeue-Light" font-size="22.0" fill="#525252" transform="matrix(1.00, 0.00, -0.00, -1.00, 609.4, 79.0)">н</text><text xml:space="preserve" font-family="HelveticaNeue-Light" font-size="22.0" fill="#525252" transform="matrix(1.00, 0.00, -0.00, -1.00, 621.2, 79.0)">е</text><text xml:space="preserve" font-family="HelveticaNeue-Light" font-size="22.0" fill="#525252" transform="matrix(1.00, 0.00, -0.00, -1.00, 632.7, 79.0)">т</text><text xml:space="preserve" font-family="HelveticaNeue-Light" font-size="22.0" fill="#525252" transform="matrix(1.00, 0.00, -0.00, -1.00, 642.4, 79.0)">а</text><text xml:space="preserve" font-family="HelveticaNeue-Light" font-size="22.0" fill="#525252" transform="matrix(1.00, 0.00, -0.00, -1.00, 653.8, 79.0)"> </text><text xml:space="preserve" font-family="HelveticaNeue-Light" font-size="22.0" fill="#525252" transform="matrix(1.00, 0.00, -0.00, -1.00, 659.9, 79.0)">б</text><text xml:space="preserve" font-family="HelveticaNeue-Light" font-size="22.0" fill="#525252" transform="matrix(1.00, 0.00, -0.00, -1.00, 672.2, 79.0)">у</text><text xml:space="preserve" font-family="HelveticaNeue-Light" font-size="22.0" fill="#525252" transform="matrix(1.00, 0.00, -0.00, -1.00, 682.4, 79.0)">д</text><text xml:space="preserve" font-family="HelveticaNeue-Light" font-size="22.0" fill="#525252" transform="matrix(1.00, 0.00, -0.00, -1.00, 694.9, 79.0)">е</text><text xml:space="preserve" font-family="HelveticaNeue-Light" font-size="22.0" fill="#525252" transform="matrix(1.00, 0.00, -0.00, -1.00, 706.3, 79.0)">т</text><text xml:space="preserve" font-family="HelveticaNeue-Light" font-size="22.0" fill="#525252" transform="matrix(1.00, 0.00, -0.00, -1.00, 716.1, 79.0)"> </text><text xml:space="preserve" font-family="HelveticaNeue-Light" font-size="22.0" fill="#525252" transform="matrix(1.00, 0.00, -0.00, -1.00, 722.2, 79.0)">д</text><text xml:space="preserve" font-family="HelveticaNeue-Light" font-size="22.0" fill="#525252" transform="matrix(1.00, 0.00, -0.00, -1.00, 734.7, 79.0)">р</text><text xml:space="preserve" font-family="HelveticaNeue-Light" font-size="22.0" fill="#525252" transform="matrix(1.00, 0.00, -0.00, -1.00, 747.3, 79.0)">у</text><text xml:space="preserve" font-family="HelveticaNeue-Light" font-size="22.0" fill="#525252" transform="matrix(1.00, 0.00, -0.00, -1.00, 757.5, 79.0)">ж</text><text xml:space="preserve" font-family="HelveticaNeue-Light" font-size="22.0" fill="#525252" transform="matrix(1.00, 0.00, -0.00, -1.00, 773.7, 79.0)">е</text><text xml:space="preserve" font-family="HelveticaNeue-Light" font-size="22.0" fill="#525252" transform="matrix(1.00, 0.00, -0.00, -1.00, 785.2, 79.0)">н</text><text xml:space="preserve" font-family="HelveticaNeue-Light" font-size="22.0" fill="#525252" transform="matrix(1.00, 0.00, -0.00, -1.00, 797.0, 79.0)"> </text><text xml:space="preserve" font-family="HelveticaNeue-Light" font-size="22.0" fill="#525252" transform="matrix(1.00, 0.00, -0.00, -1.00, 803.1, 79.0)">с</text><text xml:space="preserve" font-family="HelveticaNeue-Light" font-size="22.0" fill="#525252" transform="matrix(1.00, 0.00, -0.00, -1.00, 814.5, 79.0)"> </text><text xml:space="preserve" font-family="HelveticaNeue-Light" font-size="22.0" fill="#525252" transform="matrix(1.00, 0.00, -0.00, -1.00, 820.6, 79.0)">С</text><text xml:space="preserve" font-family="HelveticaNeue-Light" font-size="22.0" fill="#525252" transform="matrix(1.00, 0.00, -0.00, -1.00, 836.1, 79.0)">о</text><text xml:space="preserve" font-family="HelveticaNeue-Light" font-size="22.0" fill="#525252" transform="matrix(1.00, 0.00, -0.00, -1.00, 848.3, 79.0)">в</text><text xml:space="preserve" font-family="HelveticaNeue-Light" font-size="22.0" fill="#525252" transform="matrix(1.00, 0.00, -0.00, -1.00, 859.7, 79.0)">е</text><text xml:space="preserve" font-family="HelveticaNeue-Light" font-size="22.0" fill="#525252" transform="matrix(1.00, 0.00, -0.00, -1.00, 871.1, 79.0)">т</text><text xml:space="preserve" font-family="HelveticaNeue-Light" font-size="22.0" fill="#525252" transform="matrix(1.00, 0.00, -0.00, -1.00, 880.9, 79.0)">н</text><text xml:space="preserve" font-family="HelveticaNeue-Light" font-size="22.0" fill="#525252" transform="matrix(1.00, 0.00, -0.00, -1.00, 892.7, 79.0)">и</text><text xml:space="preserve" font-family="HelveticaNeue-Light" font-size="22.0" fill="#525252" transform="matrix(1.00, 0.00, -0.00, -1.00, 904.7, 79.0)">к</text><text xml:space="preserve" font-family="HelveticaNeue-Light" font-size="22.0" fill="#525252" transform="matrix(1.00, 0.00, -0.00, -1.00, 915.6, 79.0)">о</text><text xml:space="preserve" font-family="HelveticaNeue-Light" font-size="22.0" fill="#525252" transform="matrix(1.00, 0.00, -0.00, -1.00, 927.9, 79.0)">м</text></g></svg>